<?xml version="1.0" encoding="UTF-8" standalone="no"?>
<!-- Created with Inkscape (http://www.inkscape.org/) -->

<svg
   xmlns:dc="http://purl.org/dc/elements/1.1/"
   xmlns:cc="http://creativecommons.org/ns#"
   xmlns:rdf="http://www.w3.org/1999/02/22-rdf-syntax-ns#"
   xmlns:svg="http://www.w3.org/2000/svg"
   xmlns="http://www.w3.org/2000/svg"
   xmlns:sodipodi="http://sodipodi.sourceforge.net/DTD/sodipodi-0.dtd"
   xmlns:inkscape="http://www.inkscape.org/namespaces/inkscape"
   width="66.734253mm"
   height="73.973846mm"
   viewBox="0 0 66.734253 73.973848"
   version="1.1"
   id="svg8"
   inkscape:version="0.92.1 r15371"
   sodipodi:docname="Banca d'Italia.svg">
  <defs
     id="defs2" />
  <sodipodi:namedview
     id="base"
     pagecolor="#ffffff"
     bordercolor="#666666"
     borderopacity="1.0"
     inkscape:pageopacity="0.0"
     inkscape:pageshadow="2"
     inkscape:zoom="0.7"
     inkscape:cx="237.68744"
     inkscape:cy="-105.89552"
     inkscape:document-units="mm"
     inkscape:current-layer="layer1"
     showgrid="false"
     inkscape:window-width="1600"
     inkscape:window-height="837"
     inkscape:window-x="-8"
     inkscape:window-y="-8"
     inkscape:window-maximized="1"
     fit-margin-top="0"
     fit-margin-left="0"
     fit-margin-right="0"
     fit-margin-bottom="0" />
  <metadata
     id="metadata5">
    <rdf:RDF>
      <cc:Work
         rdf:about="">
        <dc:format>image/svg+xml</dc:format>
        <dc:type
           rdf:resource="http://purl.org/dc/dcmitype/StillImage" />
        <dc:title></dc:title>
      </cc:Work>
    </rdf:RDF>
  </metadata>
  <g
     inkscape:label="Livello 1"
     inkscape:groupmode="layer"
     id="layer1"
     transform="translate(-36.679592,-52.819506)">
    <path
       style="fill:#07629f;fill-opacity:1;stroke-width:0.26458335"
       d="m 61.485653,126.53505 c -1.51905,-0.29867 -3.22584,-1.3222 -4.3161,-2.58829 -0.48516,-0.5634 -1.37533,-1.27451 -1.97816,-1.58024 -2.33663,-1.18504 -3.66646,-3.64458 -3.6342,-6.7215 0.0144,-1.3741 0.72531,-3.65535 1.13242,-3.63384 0.087,0.005 0.49617,0.30557 0.90917,0.66882 0.68258,0.60036 0.72472,0.73562 0.46302,1.48633 -0.60527,1.73628 -0.0796,5.00222 1.02097,6.343 l 0.51023,0.62161 -0.14493,-1.45521 c -0.15112,-1.51736 0.18162,-3.24625 0.78308,-4.0688 0.33375,-0.45643 0.39374,-0.44496 1.19378,0.22823 0.72366,0.60893 0.80088,0.78632 0.54798,1.25888 -0.36281,0.67792 -0.17985,4.06838 0.26434,4.89834 0.2531,0.47293 0.54472,0.59259 1.43294,0.58796 1.1468,-0.006 3.13115,-0.75966 3.94917,-1.49996 0.43566,-0.39427 0.40417,-0.48859 -0.54738,-1.6391 -0.55531,-0.67141 -3.69718,-4.68481 -6.98195,-8.91866 -3.28476,-4.23384 -6.45844,-8.11402 -7.05262,-8.62262 -2.58891,-2.216009 -6.64142,-1.958399 -9.26638,0.58903 -1.28995,1.25185 -1.35234,1.87434 -0.26547,2.64826 1.74457,1.24224 4.47001,1.62347 6.46313,0.90404 1.05528,-0.38091 1.06041,-0.37954 1.77632,0.47463 l 0.71799,0.85665 -1.24716,0.59191 c -0.9331,0.44285 -1.73232,0.59276 -3.17387,0.59531 -2.08815,0.004 -3.30511,-0.3792 -4.77942,-1.5037 l -0.91379,-0.69698 0.17823,0.77131 c 0.2419,1.04691 2.23327,2.84254 3.60976,3.25495 2.51313,0.75295 5.02694,0.30107 6.62442,-1.19081 l 0.67582,-0.63113 0.84508,0.8719 0.84509,0.87191 -1.31691,1.00428 c -2.85445,2.17684 -6.33046,2.3449 -9.31761,0.45051 -1.63505,-1.03692 -2.56209,-2.65948 -2.83727,-4.96594 -0.11843,-0.99263 -0.42313,-2.57431 -0.67711,-3.51486 -1.08488,-4.017489 0.87386,-8.283659 4.60719,-10.034579 1.30943,-0.61411 1.79728,-0.69075 4.39732,-0.69075 2.84179,0 2.98021,0.0277 4.89479,0.97985 1.08367,0.53891 2.58354,1.52006 3.33306,2.18032 0.74952,0.66026 4.41094,5.123779 8.13648,9.918939 3.72555,4.79515 6.89254,8.79189 7.03776,8.88164 0.14522,0.0898 0.26404,0.93845 0.26404,1.88599 v 1.7228 l -1.33639,1.21618 -1.33639,1.21618 1.33639,1.3532 c 1.10676,1.12069 1.33639,1.51667 1.33639,2.30449 0,0.88294 -0.0903,0.98996 -1.25677,1.48951 -1.34019,0.57396 -3.95561,1.13327 -5.07567,1.08545 -0.37346,-0.016 -1.19732,-0.13089 -1.83081,-0.25544 z m 5.24867,-1.43325 c 0.76527,-0.38779 1.28764,-0.79641 1.16081,-0.90804 -0.12683,-0.11163 -0.78827,-0.70551 -1.46987,-1.31973 -1.17091,-1.05516 -1.27308,-1.09515 -1.85209,-0.72487 -0.88167,0.56382 -3.31868,1.23074 -4.49729,1.23074 -1.2109,0 -1.25284,0.19781 -0.24639,1.16205 1.69837,1.62714 4.371,1.84384 6.90483,0.55985 z m 0.84303,-9.0308 c -7.0318,-9.1636 -13.20229,-16.935199 -14.35488,-18.079669 -2.7587,-2.73927 -5.73213,-3.7778 -9.16055,-3.19952 -3.25653,0.54929 -5.41964,2.2178 -6.3268,4.88018 -0.40147,1.178229 -0.33288,3.090139 0.10962,3.056039 0.10255,-0.008 0.54364,-0.57344 0.9802,-1.25677 1.60045,-2.505069 4.58391,-3.759049 7.64325,-3.212519 3.33898,0.59649 4.16396,1.40845 12.87007,12.666999 l 6.43037,8.31563 1.12535,-1.29719 c 1.08503,-1.25072 1.10952,-1.31784 0.68337,-1.87318 z m 6.4024,10.36858 c -0.89225,-0.2023 -1.99358,-0.55982 -2.44739,-0.7945 -0.7246,-0.3747 -0.82512,-0.56175 -0.82512,-1.53528 0,-0.95856 0.16127,-1.27234 1.19161,-2.3184 l 1.19161,-1.20981 -1.19161,-1.16947 c -1.17868,-1.15679 -1.19161,-1.18882 -1.19161,-2.95119 v -1.78172 l 6.62211,-8.54809 c 3.64215,-4.70145 7.35295,-9.236009 8.2462,-10.076799 0.95121,-0.89534 2.44954,-1.93674 3.61642,-2.51354 1.93634,-0.95716 2.07451,-0.98484 4.91682,-0.98484 2.60004,0 3.08789,0.0766 4.39731,0.69075 3.733337,1.75092 5.692077,6.01709 4.607197,10.034579 -0.25399,0.94055 -0.55869,2.52223 -0.67711,3.51486 -0.27518,2.30646 -1.20222,3.92902 -2.837267,4.96594 -3.00855,1.90796 -6.6888,1.7079 -9.36301,-0.50899 l -1.24113,-1.02887 0.86353,-0.83697 0.86352,-0.83696 0.50989,0.5638 c 1.3476,1.49007 4.19551,2.02861 6.72309,1.27133 1.37648,-0.41241 3.367857,-2.20804 3.609757,-3.25495 l 0.17822,-0.77131 -0.91379,0.69698 c -1.474297,1.1245 -2.691267,1.50739 -4.779407,1.5037 -1.44155,-0.003 -2.24078,-0.15246 -3.17388,-0.59531 l -1.24715,-0.59191 0.71799,-0.85665 c 0.71591,-0.85417 0.72104,-0.85554 1.77631,-0.47463 1.99313,0.71943 4.71857,0.3382 6.463127,-0.90404 1.08688,-0.77392 1.02448,-1.39641 -0.26546,-2.64826 -2.624957,-2.547429 -6.677477,-2.805039 -9.266377,-0.58903 -0.59418,0.5086 -3.76787,4.38878 -7.05263,8.62262 -3.28476,4.23385 -6.42663,8.24725 -6.98194,8.91866 -0.95155,1.15051 -0.98304,1.24483 -0.54738,1.6391 0.81802,0.7403 2.80236,1.49398 3.94917,1.49996 0.88822,0.005 1.17984,-0.11503 1.43294,-0.58796 0.44419,-0.82996 0.62715,-4.22042 0.26434,-4.89834 -0.25291,-0.47256 -0.17569,-0.64995 0.54798,-1.25888 0.80004,-0.67319 0.86003,-0.68466 1.19378,-0.22823 0.60145,0.82255 0.9342,2.55144 0.78308,4.0688 l -0.14493,1.45521 0.51023,-0.62161 c 1.10055,-1.34078 1.62623,-4.60672 1.02097,-6.343 -0.2617,-0.75071 -0.21957,-0.88597 0.46302,-1.48633 0.413,-0.36325 0.82213,-0.66422 0.90917,-0.66882 0.4071,-0.0215 1.11801,2.25974 1.13242,3.63384 0.0322,3.07094 -1.29489,5.53137 -3.62452,6.71985 -0.5975,0.30482 -1.59323,1.11799 -2.21274,1.80703 -1.96357,2.18396 -5.28074,3.04687 -8.71736,2.26768 z m 4.2092,-0.69434 c 0.98298,-0.27298 2.83704,-1.66377 2.83704,-2.12817 0,-0.13044 -0.45464,-0.23717 -1.01031,-0.23717 -1.17241,0 -3.61398,-0.66595 -4.4866,-1.22373 -0.567,-0.36244 -0.68567,-0.31121 -2.03518,0.87859 l -1.43307,1.26348 0.79637,0.50422 c 1.81402,1.14856 3.51052,1.44854 5.33175,0.94278 z m 2.60114,-14.8669 c 8.66563,-11.206449 9.49653,-12.023509 12.83328,-12.619599 3.05933,-0.54653 6.04279,0.70745 7.643237,3.212519 0.43657,0.68333 0.87766,1.24887 0.9802,1.25677 0.44251,0.0341 0.51109,-1.87781 0.10963,-3.056039 -0.90717,-2.66238 -3.070267,-4.33089 -6.326807,-4.88018 -3.35832,-0.56646 -6.32585,0.43552 -9.00958,3.04205 -0.75694,0.73516 -4.04708,4.789479 -7.31142,9.009579 -3.26435,4.22011 -6.32395,8.13679 -6.79912,8.70373 l -0.86395,1.03082 1.07527,1.28429 c 0.59139,0.70636 1.12036,1.28429 1.17547,1.28429 0.0551,0 2.97731,-3.72071 6.49379,-8.26823 z m -12.99327,-5.58046 c 0,-0.0808 0.27993,-0.44902 0.62208,-0.8182 0.34214,-0.36918 0.7467,-1.05992 0.89903,-1.53499 0.26363,-0.82221 0.27825,-0.79059 0.30396,0.65761 0.0237,1.33273 -0.0359,1.52135 -0.48051,1.52135 -0.27914,0 -0.69586,0.0723 -0.92604,0.1606 -0.23019,0.0883 -0.41852,0.0945 -0.41852,0.0136 z m 5.31751,-0.10731 -2.4877,-0.0878 0.17153,-3.36298 c 0.0943,-1.849639 0.172,-5.178679 0.17259,-7.397869 l 0.001,-4.034898 h 1.56651 1.56652 l 0.0871,6.283858 c 0.0755,5.447899 0.15057,6.400059 0.56399,7.157359 0.26227,0.48043 0.64922,0.93965 0.85989,1.0205 0.38532,0.14785 0.5551,0.66714 0.18461,0.56462 -0.10914,-0.0302 -1.3179,-0.0944 -2.68614,-0.14275 z m -12.17174,-2.91875 c 1.20202,-0.84193 1.4034,-1.77331 1.51437,-7.003899 l 0.10525,-4.960938 h 1.27867 1.27866 l 0.0819,5.132288 c 0.0735,4.607919 0.13337,5.189129 0.5859,5.688539 0.27721,0.30594 0.81299,0.55788 1.19062,0.55987 0.9782,0.005 1.91215,0.28933 1.8219,0.55438 -0.0423,0.12431 -1.94166,0.26181 -4.22073,0.30554 -3.52803,0.0677 -4.06839,0.0267 -3.63651,-0.27578 z m 13.99798,-0.149 c 0,-0.19524 0.50602,-0.50599 1.12448,-0.69054 2.5546,-0.7623 4.03068,-3.677999 3.38535,-6.687069 -0.46074,-2.14836 -1.7589,-3.51571 -3.97895,-4.191018 -0.49475,-0.15049 -0.28502,-0.2075 0.82587,-0.22447 3.6559,-0.0558 6.31617,2.346608 6.31617,5.704018 0,2.67813 -1.28908,4.507869 -4.10104,5.821089 -1.47667,0.68962 -3.57188,0.84682 -3.57188,0.26799 z M 62.505153,84.375293 c 0,-5.1281 -0.10264,-5.71118 -1.15544,-6.56399 -0.54037,-0.43771 -0.38731,-0.45738 3.60284,-0.46302 3.53039,-0.005 4.16719,0.0548 4.16719,0.39099 0,0.3175 -0.39688,0.39688 -1.98438,0.39688 h -1.98437 v 5.02708 5.02709 h 2.11666 c 1.70509,0 2.11667,0.0772 2.11667,0.39687 0,0.30332 -0.33364,0.39688 -1.41529,0.39688 -0.77841,0 -2.32622,0.077 -3.43958,0.17111 l -2.0243,0.17112 z m 8.26823,4.69813 c -0.40092,-0.16177 -0.44325,-0.8831 -0.0518,-0.8831 0.30694,0 0.18665,-10.78098 -0.13876,-12.43542 l -0.18214,-0.92604 2.71506,-0.052 2.71506,-0.052 -0.70662,0.65521 c -0.38864,0.36037 -0.77149,0.91957 -0.85077,1.24267 -0.0793,0.32309 -0.11042,2.99835 -0.0692,5.94501 l 0.0749,5.35756 1.11801,-0.55337 c 1.67246,-0.82778 2.32158,-2.05432 2.32158,-4.38671 0,-2.18528 -0.45382,-3.04258 -2.07663,-3.92296 -1.24491,-0.67536 -1.19064,-1.35422 0.0997,-1.24718 1.42506,0.11823 3.54283,1.21395 4.2408,2.19416 0.93956,1.31948 1.04505,3.79899 0.2238,5.26022 -0.77347,1.37619 -2.49967,2.53175 -4.43114,2.96629 l -1.49611,0.3366 1.45521,0.30849 c 1.42641,0.30239 1.39499,0.30867 -1.5875,0.3173 -1.67349,0.005 -3.19154,-0.0513 -3.37344,-0.12465 z m -28.29152,-2.41525 c -1.84392,-0.65998 -3.09703,-1.5509 -4.06034,-2.88675 -1.57832,-2.18872 -2.1411,-5.08905 -1.45285,-7.48735 0.22969,-0.80037 0.52848,-2.33009 0.66398,-3.39938 0.31101,-2.45424 1.20143,-4.0393 2.85999,-5.09113 2.98715,-1.89439 6.46316,-1.72632 9.31761,0.45051 l 1.31691,1.00429 -0.84509,0.8719 -0.84508,0.87191 -0.67582,-0.63114 c -1.59748,-1.49187 -4.11129,-1.94376 -6.62442,-1.19081 -1.37649,0.41241 -3.36786,2.20804 -3.60976,3.25495 l -0.17823,0.77132 0.91379,-0.69699 c 1.47431,-1.1245 2.69127,-1.50739 4.77942,-1.5037 1.44155,0.003 2.24077,0.15246 3.17387,0.59532 l 1.24716,0.5919 -0.71799,0.85665 c -0.71591,0.85417 -0.72104,0.85554 -1.77632,0.47463 -0.58208,-0.2101 -1.54542,-0.38723 -2.14076,-0.39362 -2.22192,-0.0238 -5.13528,1.3309 -5.13528,2.38795 0,0.7977 2.00346,2.54714 3.60184,3.14517 2.57525,0.96353 5.2063,0.49496 7.07975,-1.26085 0.41784,-0.39161 3.4436,-4.16482 6.7239,-8.38493 3.2803,-4.2201 6.41853,-8.22225 6.97384,-8.89367 0.95155,-1.15051 0.98304,-1.24483 0.54738,-1.63909 -0.81802,-0.7403 -2.80237,-1.49399 -3.94917,-1.49997 -0.88822,-0.005 -1.17984,0.11503 -1.43294,0.58796 -0.44419,0.82997 -0.62715,4.22042 -0.26434,4.89834 0.2529,0.47256 0.17568,0.64996 -0.54798,1.25888 -0.80004,0.67319 -0.86003,0.68466 -1.19378,0.22823 -0.60146,-0.82254 -0.9342,-2.55144 -0.78308,-4.0688 l 0.14493,-1.45521 -0.51023,0.62161 c -1.10056,1.34079 -1.62624,4.60672 -1.02097,6.343 0.2617,0.75071 0.21956,0.88598 -0.46302,1.48633 -0.413,0.36326 -0.82213,0.66423 -0.90917,0.66883 -0.40711,0.0215 -1.11801,-2.25974 -1.13242,-3.63385 -0.0323,-3.07586 1.29518,-5.53201 3.6342,-6.72436 0.60283,-0.3073 1.54677,-1.07041 2.09765,-1.69581 1.17589,-1.33494 3.21674,-2.38238 5.10862,-2.62193 1.57273,-0.19913 4.25955,0.22785 5.86218,0.9316 1.07037,0.47002 1.12448,0.54817 1.12448,1.62405 0,0.98511 -0.15383,1.28645 -1.1978,2.34636 l -1.19781,1.21609 1.19781,1.12267 c 1.19606,1.12104 1.1978,1.12532 1.1978,2.94491 v 1.82223 l -6.62211,8.54809 c -3.64216,4.70146 -7.35295,9.23601 -8.2462,10.0768 -0.93475,0.87985 -2.44767,1.93574 -3.56441,2.48766 -1.74924,0.86453 -2.19432,0.96883 -4.51994,1.05928 -2.03156,0.079 -2.87074,-0.004 -3.9498,-0.39008 z m 5.51022,-2.00282 c 1.9414,-0.45695 3.62487,-1.461 5.33185,-3.18001 1.06696,-1.07448 7.60721,-9.3296 14.25342,-17.9907 0.42615,-0.55535 0.40166,-0.62247 -0.68337,-1.87319 l -1.12535,-1.29719 -6.43037,8.31563 c -8.70611,11.25856 -9.53109,12.07052 -12.87007,12.667 -3.05934,0.54653 -6.0428,-0.70744 -7.64325,-3.21252 -0.43656,-0.68332 -0.87765,-1.24887 -0.9802,-1.25677 -0.4425,-0.0341 -0.51109,1.87781 -0.10962,3.05604 0.84929,2.49253 2.83645,4.15256 5.71269,4.77223 1.9438,0.41878 2.76324,0.41869 4.54427,-5.3e-4 z m 18.6824,-28.18383 1.3912,-1.26769 -1.29693,-0.70588 c -2.43494,-1.32526 -4.99214,-1.17689 -6.78061,0.39341 -0.50742,0.44551 -0.92257,0.91675 -0.92257,1.0472 0,0.13044 0.46371,0.23717 1.03046,0.23717 1.15144,0 4.41606,0.93131 4.66252,1.3301 0.25341,0.41002 0.4435,0.3074 1.91593,-1.03431 z m 24.56912,30.38076 c -1.50993,-0.37592 -3.84538,-1.69384 -5.379,-3.03541 -0.74053,-0.6478 -4.3946,-5.10113 -8.12014,-9.89628 -3.72555,-4.79516 -6.89254,-8.7919 -7.03777,-8.88165 -0.14522,-0.0898 -0.26404,-0.9253 -0.26404,-1.85676 0,-1.69279 5.3e-4,-1.69415 1.33402,-2.94139 l 1.33402,-1.24782 -1.33402,-1.35079 c -1.10448,-1.11837 -1.33402,-1.51448 -1.33402,-2.30208 0,-0.88279 0.0905,-0.99012 1.25677,-1.49058 4.17672,-1.79227 8.55619,-1.18132 10.99769,1.53421 0.61951,0.68905 1.61524,1.50221 2.21274,1.80703 2.32963,1.18849 3.65672,3.64891 3.62452,6.71985 -0.0144,1.37411 -0.72532,3.65535 -1.13242,3.63385 -0.087,-0.005 -0.49617,-0.30557 -0.90917,-0.66883 -0.68259,-0.60035 -0.72472,-0.73562 -0.46302,-1.48633 0.60526,-1.73628 0.0796,-5.00221 -1.02097,-6.343 l -0.51023,-0.62161 0.14493,1.45521 c 0.15112,1.51736 -0.18163,3.24626 -0.78308,4.0688 -0.33375,0.45643 -0.39374,0.44496 -1.19378,-0.22823 -0.72367,-0.60892 -0.80089,-0.78632 -0.54798,-1.25888 0.36281,-0.67792 0.17985,-4.06837 -0.26434,-4.89834 -0.41565,-0.77665 -2.07594,-0.79632 -3.73398,-0.0442 -2.29639,1.04163 -2.3089,1.11229 -0.57621,3.2532 0.83943,1.0372 3.97566,5.04097 6.96939,8.89727 2.99373,3.85631 5.78523,7.33186 6.20333,7.72347 1.87479,1.75596 4.50502,2.22436 7.08022,1.26085 1.59839,-0.59803 3.601847,-2.34747 3.601847,-3.14517 0,-1.05705 -2.913367,-2.41179 -5.135277,-2.38795 -0.59534,0.006 -1.55868,0.18352 -2.14077,0.39362 -1.05527,0.38091 -1.0604,0.37954 -1.77631,-0.47463 l -0.71799,-0.85665 1.24715,-0.5919 c 0.9331,-0.44286 1.73233,-0.59277 3.17388,-0.59532 2.08814,-0.004 3.30511,0.3792 4.779407,1.5037 l 0.91379,0.69699 -0.17822,-0.77132 c -0.2419,-1.04691 -2.233277,-2.84254 -3.609757,-3.25495 -2.52758,-0.75728 -5.37549,-0.21874 -6.72309,1.27134 l -0.50989,0.56379 -0.86352,-0.83696 -0.86353,-0.83696 1.24113,-1.02888 c 2.67421,-2.21689 6.35446,-2.41695 9.36301,-0.50899 1.635047,1.03692 2.562087,2.65948 2.837267,4.96595 0.11842,0.99262 0.42312,2.57431 0.67711,3.51486 1.09079,4.03937 -0.86575,8.29925 -4.601927,10.0196 -1.18168,0.5441 -1.95562,0.69397 -3.85934,0.74732 -1.30969,0.0367 -2.84348,-0.0483 -3.40843,-0.18901 z m 5.27482,-2.18383 c 3.00027,-0.62905 4.972887,-2.2458 5.838017,-4.78481 0.40146,-1.17823 0.33288,-3.09014 -0.10963,-3.05604 -0.10254,0.008 -0.54363,0.57345 -0.9802,1.25677 -1.600447,2.50508 -4.583907,3.75905 -7.643237,3.21252 -3.33899,-0.59648 -4.16397,-1.40844 -12.87007,-12.667 l -6.43038,-8.31563 -1.12535,1.29719 c -1.08562,1.2514 -1.10975,1.31763 -0.68336,1.87588 5.48386,7.17976 13.43425,17.19601 14.40853,18.1525 1.59235,1.56327 3.2965,2.57576 5.05264,3.00195 1.76611,0.42861 2.60254,0.43352 4.54304,0.0267 z m -21.18541,-27.16262 c 0.24646,-0.39879 3.51108,-1.3301 4.66252,-1.3301 0.56675,0 1.03046,-0.10673 1.03046,-0.23717 0,-0.13045 -0.41516,-0.60169 -0.92257,-1.0472 -1.78848,-1.5703 -4.34567,-1.71867 -6.78061,-0.39341 l -1.29694,0.70588 1.39121,1.26769 c 1.47243,1.34171 1.66252,1.44433 1.91593,1.03431 z m -6.61015,17.7199 c -0.46481,-0.51361 -0.46213,-0.52916 0.0913,-0.52916 0.39378,0 0.57017,0.1637 0.57017,0.52916 0,0.29104 -0.0411,0.52917 -0.0913,0.52917 -0.0502,0 -0.30679,-0.23813 -0.57018,-0.52917 z"
       id="path4506"
       inkscape:connector-curvature="0" />
  </g>
</svg>
