<?xml version="1.0" standalone="no"?>
<!DOCTYPE svg PUBLIC "-//W3C//DTD SVG 20010904//EN"
 "http://www.w3.org/TR/2001/REC-SVG-20010904/DTD/svg10.dtd">
<svg version="1.0" xmlns="http://www.w3.org/2000/svg"
 width="56.000000pt" height="62.000000pt" viewBox="0 0 56.000000 62.000000"
 preserveAspectRatio="xMidYMid meet">

<g transform="translate(0.000000,62.000000) scale(0.100000,-0.100000)"
fill="#000000" stroke="none">
<path d="M157 582 c-18 -18 -27 -38 -26 -58 l1 -29 8 33 c9 41 20 53 20 24 0
-12 5 -22 10 -22 6 0 10 13 10 28 0 15 5 33 12 40 7 7 8 12 2 12 -6 0 -22 -13
-37 -28z"/>
<path d="M243 582 c-12 -15 -50 -62 -83 -104 -51 -64 -67 -78 -90 -78 -30 0
-56 23 -45 40 3 5 21 10 38 10 26 1 29 3 15 10 -20 12 -68 -7 -68 -27 0 -19
37 -53 58 -53 28 0 55 24 117 104 51 68 75 85 75 55 0 -16 -120 -169 -141
-180 -27 -14 -70 -11 -91 8 -20 18 -25 4 -6 -15 17 -17 89 -15 114 3 12 8 46
47 77 87 50 66 55 78 55 121 -1 26 -2 47 -2 47 -1 -1 -11 -13 -23 -28z"/>
<path d="M290 600 c0 -22 162 -210 186 -216 29 -8 81 25 76 48 -2 7 -6 22 -8
32 -2 11 -9 23 -16 28 -18 12 -71 5 -75 -9 -3 -9 3 -9 26 0 26 10 33 9 48 -7
17 -18 17 -18 -7 -13 -14 4 -32 2 -40 -3 -11 -7 -7 -10 18 -10 21 0 35 -6 39
-16 7 -20 -13 -34 -49 -34 -22 0 -39 16 -95 87 -76 99 -103 128 -103 113z"/>
<path d="M375 595 c5 -11 9 -30 9 -42 1 -30 16 -30 16 -1 0 31 17 10 23 -27
l4 -30 2 31 c1 22 -7 38 -31 60 -24 22 -29 24 -23 9z"/>
<path d="M290 538 c0 -22 90 -145 131 -180 32 -27 104 -24 123 4 24 33 19 45
-5 14 -24 -31 -73 -35 -105 -8 -43 35 -136 162 -130 177 3 8 1 15 -4 15 -6 0
-10 -10 -10 -22z"/>
<path d="M26 485 c-24 -24 -20 -26 14 -7 25 14 33 15 51 4 18 -11 20 -11 17 0
-7 20 -63 22 -82 3z"/>
<path d="M290 375 c0 -37 4 -55 13 -55 8 0 12 18 12 55 0 37 -4 55 -12 55 -9
0 -13 -18 -13 -55z"/>
<path d="M218 365 c2 -25 8 -45 13 -45 5 0 9 20 9 45 0 29 -4 45 -13 45 -8 0
-11 -14 -9 -45z"/>
<path d="M335 394 c11 -11 14 -25 10 -42 -5 -22 -4 -24 9 -13 22 18 20 48 -3
61 -29 15 -35 12 -16 -6z"/>
<path d="M218 255 c-2 -31 1 -45 9 -45 9 0 13 16 13 45 0 25 -4 45 -9 45 -5 0
-11 -20 -13 -45z"/>
<path d="M290 240 c0 -48 3 -60 16 -60 11 0 14 5 10 16 -3 9 -6 36 -6 60 0 24
-4 44 -10 44 -6 0 -10 -27 -10 -60z"/>
<path d="M358 269 c2 -16 -1 -36 -8 -44 -15 -18 1 -20 18 -3 16 16 15 65 -1
71 -10 4 -12 -3 -9 -24z"/>
<path d="M22 268 c-19 -19 -14 -33 6 -15 21 19 64 22 91 8 21 -11 141 -164
141 -180 0 -30 -24 -13 -75 55 -80 104 -108 121 -151 90 -17 -13 -15 -14 22
-9 l40 5 63 -78 c34 -44 72 -91 85 -106 l23 -26 1 46 c0 42 -5 55 -55 120 -31
40 -65 79 -77 87 -25 18 -97 20 -114 3z"/>
<path d="M422 263 c-35 -30 -132 -157 -132 -173 0 -9 5 -21 11 -27 8 -8 8 -13
0 -17 -6 -4 -11 -15 -11 -24 1 -15 2 -15 11 1 8 14 18 17 37 12 24 -6 25 -5
10 7 -15 12 -11 21 48 96 53 67 70 82 92 82 62 -1 71 -49 10 -51 -32 -2 -31
-2 7 -8 39 -6 40 -7 16 -20 -18 -10 -29 -10 -48 -2 -19 9 -24 9 -21 -1 5 -15
57 -22 76 -10 7 5 14 17 16 28 2 10 6 25 8 32 1 8 -9 23 -24 34 -42 33 -70 18
-145 -77 -60 -76 -83 -94 -83 -63 0 13 105 146 134 170 30 25 81 23 107 -4
l23 -23 -16 25 c-20 33 -93 40 -126 13z"/>
<path d="M10 188 c0 -19 37 -33 67 -25 10 3 4 5 -14 6 -19 1 -36 8 -42 19 -10
16 -10 16 -11 0z"/>
<path d="M16 145 c11 -28 83 -34 92 -7 3 10 -2 10 -22 1 -20 -10 -30 -9 -50 5
-22 14 -25 14 -20 1z"/>
<path d="M131 96 c-1 -30 40 -86 63 -86 6 0 5 5 -2 12 -7 7 -12 25 -12 40 0
15 -4 28 -10 28 -5 0 -10 -10 -10 -22 0 -29 -11 -17 -20 24 l-8 33 -1 -29z"/>
<path d="M421 100 c-1 -14 -6 -32 -11 -40 -8 -12 -10 -11 -10 8 0 12 -4 22
-10 22 -5 0 -7 -7 -4 -15 4 -8 -1 -26 -10 -40 -22 -34 -6 -32 28 4 20 21 26
36 23 57 -4 27 -4 27 -6 4z"/>
</g>
</svg>
