<?xml version="1.0" standalone="no"?>
<!DOCTYPE svg PUBLIC "-//W3C//DTD SVG 20010904//EN"
 "http://www.w3.org/TR/2001/REC-SVG-20010904/DTD/svg10.dtd">
<svg version="1.0" xmlns="http://www.w3.org/2000/svg"
 width="110.000000pt" height="105.000000pt" viewBox="0 0 110.000000 105.000000"
 preserveAspectRatio="xMidYMid meet">
<metadata>
Created by potrace 1.16, written by Peter Selinger 2001-2019
</metadata>
<g transform="translate(0.000000,105.000000) scale(0.100000,-0.100000)"
fill="#000000" stroke="none">
<path d="M458 876 c-13 -30 -4 -58 17 -50 11 5 15 -1 15 -25 0 -27 -4 -31 -27
-33 -19 -1 -13 -3 17 -8 l45 -7 -45 -2 c-35 -2 -40 -4 -25 -11 11 -4 30 -6 42
-3 22 5 23 3 20 -66 -1 -39 -1 -71 1 -71 2 0 14 12 27 27 23 27 23 28 44 9 11
-10 18 -23 15 -27 -3 -5 9 -9 26 -9 18 0 29 4 25 10 -3 6 -1 10 4 10 6 0 11
-4 11 -10 0 -5 7 -10 15 -10 11 0 14 -15 13 -75 l-1 -74 -131 -4 -131 -3 133
-2 132 -2 0 -45 0 -45 -244 0 -245 0 -20 53 c-11 28 -20 45 -20 37 -2 -33 61
-143 107 -189 46 -46 135 -101 164 -101 7 0 -14 13 -47 29 -73 36 -141 94
-130 110 4 7 14 10 22 7 8 -4 11 -1 7 5 -3 6 -17 8 -29 5 -13 -3 -27 -2 -30 4
-4 7 111 10 339 10 l345 0 16 31 c9 17 14 33 12 36 -3 2 -8 -5 -12 -16 -6 -20
-14 -21 -116 -21 l-109 0 0 196 c0 205 -13 326 -38 346 -24 21 -44 -18 -36
-70 5 -32 3 -47 -7 -53 -9 -6 1 -9 31 -10 l45 -2 -50 -7 c-47 -6 -29 -15 22
-10 21 1 22 -2 21 -64 -2 -66 -14 -90 -20 -38 -2 16 -9 27 -18 27 -9 0 -16
-11 -18 -27 -7 -63 -48 -13 -57 69 -4 35 -11 60 -16 57 -13 -8 -11 -48 4 -63
10 -11 9 -13 -5 -8 -15 5 -18 1 -18 -23 0 -16 -4 -32 -10 -35 -6 -4 -10 15
-10 51 0 32 -5 87 -11 123 -16 91 -38 116 -61 67z"/>
<path d="M534 288 c-15 -18 -18 -35 -16 -82 2 -41 -1 -62 -10 -67 -8 -5 19 -9
62 -9 41 0 70 4 63 8 -16 10 -20 115 -5 120 7 2 12 13 12 24 0 15 5 19 20 15
11 -3 18 -1 14 4 -10 16 -36 9 -41 -11 -3 -11 -8 -20 -12 -20 -3 0 -12 9 -19
20 -16 26 -44 25 -68 -2z"/>
</g>
</svg>
