<?xml version="1.0" encoding="UTF-8"?>
<svg version="1.1" xmlns="http://www.w3.org/2000/svg" width="200" height="200">
<path d="M0 0 C66 0 132 0 200 0 C200 66 200 132 200 200 C134 200 68 200 0 200 C0 134 0 68 0 0 Z " fill="#FEFDFD" transform="translate(0,0)"/>
<path d="M0 0 C12.87 0 25.74 0 39 0 C39 12.87 39 25.74 39 39 C26.13 39 13.26 39 0 39 C0 26.13 0 13.26 0 0 Z " fill="#FC0000" transform="translate(4,80)"/>
<path d="M0 0 C4.67789326 2.93514871 8.69481446 7.01462892 11.1875 12 C12.1735026 25.7281901 12.1735026 25.7281901 8.1875 31 C2.91945559 36.37210454 -1.88037455 39.256123 -9.5625 39.5 C-16.05669981 39.38803104 -20.10309111 37.40010449 -24.8125 33 C-29.29962424 27.80241442 -30.29469169 22.62910213 -30.21484375 15.921875 C-29.41495924 10.11300494 -26.21019649 6.27514756 -22.0546875 2.33203125 C-15.43122226 -2.61478275 -7.67878211 -2.01410678 0 0 Z " fill="#FBFBFB" transform="translate(183.8125,81)"/>
<path d="M0 0 C2.97 0 5.94 0 9 0 C10.98 8.25 12.96 16.5 15 25 C16.93342432 17.147553 16.93342432 17.147553 18.85913086 9.29321289 C19.10026611 8.3211792 19.34140137 7.34914551 19.58984375 6.34765625 C19.83597412 5.34742432 20.08210449 4.34719238 20.33569336 3.31665039 C21 1 21 1 22 0 C23.51928038 -0.07179964 25.04167482 -0.08392007 26.5625 -0.0625 C27.38878906 -0.05347656 28.21507813 -0.04445313 29.06640625 -0.03515625 C29.70449219 -0.02355469 30.34257813 -0.01195313 31 0 C31.26478149 1.0372522 31.26478149 1.0372522 31.53491211 2.09545898 C32.33219683 5.21040134 33.13477494 8.32395541 33.9375 11.4375 C34.35418945 13.07041992 34.35418945 13.07041992 34.77929688 14.73632812 C35.04677734 15.77080078 35.31425781 16.80527344 35.58984375 17.87109375 C35.83597412 18.82943115 36.08210449 19.78776855 36.33569336 20.77514648 C36.7937952 22.95220964 36.7937952 22.95220964 38 24 C38.14622803 23.34402832 38.29245605 22.68805664 38.44311523 22.01220703 C39.10521028 19.04919382 39.77130419 16.08709377 40.4375 13.125 C40.66759766 12.09246094 40.89769531 11.05992188 41.13476562 9.99609375 C41.35712891 9.00996094 41.57949219 8.02382812 41.80859375 7.0078125 C42.01282959 6.09660645 42.21706543 5.18540039 42.42749023 4.24658203 C43 2 43 2 44 0 C46.64 0 49.28 0 52 0 C51.01210934 6.22532497 49.58345723 12.30842244 48.125 18.4375 C47.86847656 19.54416016 47.61195312 20.65082031 47.34765625 21.79101562 C45.99624685 27.47168882 44.53172589 32.73188774 42 38 C39.36 38 36.72 38 34 38 C32.85021363 34.27204053 31.70586858 30.54243233 30.5625 26.8125 C30.23701172 25.75740234 29.91152344 24.70230469 29.57617188 23.61523438 C29.26357422 22.59365234 28.95097656 21.57207031 28.62890625 20.51953125 C28.1968689 19.11344604 28.1968689 19.11344604 27.75610352 17.67895508 C27.0372237 15.13188753 26.48067967 12.60144665 26 10 C25.74307373 11.05912598 25.74307373 11.05912598 25.48095703 12.13964844 C24.7005995 15.34433076 23.91288394 18.54716016 23.125 21.75 C22.85558594 22.86117187 22.58617188 23.97234375 22.30859375 25.1171875 C22.04433594 26.18710938 21.78007813 27.25703125 21.5078125 28.359375 C21.26691895 29.34389648 21.02602539 30.32841797 20.77783203 31.34277344 C20.07077953 33.75820327 19.20907658 35.80084939 18 38 C15.36 38 12.72 38 10 38 C8.28958842 34.00824735 7.13791887 30.00388023 6.0546875 25.80078125 C5.87994904 25.12452194 5.70521057 24.44826263 5.525177 23.75151062 C5.15889658 22.33076574 4.79424855 20.90959911 4.43115234 19.48803711 C3.87383261 17.30793345 3.31034382 15.12949091 2.74609375 12.95117188 C0 2.27525564 0 2.27525564 0 0 Z " fill="#090909" transform="translate(55,81)"/>
<path d="M0 0 C7.59 0 15.18 0 23 0 C23 1.98 23 3.96 23 6 C18.05 6 13.1 6 8 6 C8 8.97 8 11.94 8 15 C12.95 15 17.9 15 23 15 C23 16.98 23 18.96 23 21 C18.05 21 13.1 21 8 21 C8 26.61 8 32.22 8 38 C5.36 38 2.72 38 0 38 C0 25.46 0 12.92 0 0 Z " fill="#020202" transform="translate(126,81)"/>
<path d="M0 0 C4.67789326 2.93514871 8.69481446 7.01462892 11.1875 12 C12.1735026 25.7281901 12.1735026 25.7281901 8.1875 31 C2.91945559 36.37210454 -1.88037455 39.256123 -9.5625 39.5 C-16.05669981 39.38803104 -20.10309111 37.40010449 -24.8125 33 C-29.29962424 27.80241442 -30.29469169 22.62910213 -30.21484375 15.921875 C-29.41495924 10.11300494 -26.21019649 6.27514756 -22.0546875 2.33203125 C-15.43122226 -2.61478275 -7.67878211 -2.01410678 0 0 Z M-22.6875 8 C-26.34961566 13.17004564 -26.31194289 17.8626153 -25.8125 24 C-24.26952991 29.01465279 -21.34353126 31.91529013 -17.12109375 34.859375 C-12.29056093 37.24603419 -7.60387463 36.82014615 -2.5390625 35.33203125 C2.79577612 33.06125422 4.81900153 30.21069664 7.1875 25 C8.72783038 20.37900885 8.7260555 16.55230704 7.125 11.9375 C4.11225895 7.36979583 0.42860803 3.74703601 -4.8125 2 C-11.92997547 1.52550164 -17.75718076 2.32095033 -22.6875 8 Z " fill="#121212" transform="translate(183.8125,81)"/>
<path d="M0 0 C12.87 0 25.74 0 39 0 C39 12.87 39 25.74 39 39 C26.13 39 13.26 39 0 39 C0 26.13 0 13.26 0 0 Z M2 2 C2 13.55 2 25.1 2 37 C13.55 37 25.1 37 37 37 C37 25.78 37 14.56 37 3 C32.13092462 2.3044178 28.02326863 1.8800771 23.19140625 1.90234375 C22.07193604 1.90484131 20.95246582 1.90733887 19.79907227 1.90991211 C18.40100342 1.91901611 17.00293457 1.92812012 15.5625 1.9375 C11.086875 1.958125 6.61125 1.97875 2 2 Z " fill="#E02423" transform="translate(4,80)"/>
<path d="M0 0 C1.32 0 2.64 0 4 0 C4 12.87 4 25.74 4 39 C2.68 39 1.36 39 0 39 C0 26.13 0 13.26 0 0 Z " fill="#222222" transform="translate(113,80)"/>
</svg>
